{"glyphs":{"0":{"ha":699,"x_min":47,"x_max":651,"o":"m 453 0 l 244 0 q 106 58 165 0 q 47 195 47 117 l 47 869 q 107 1006 47 947 q 245 1065 167 1065 l 453 1065 q 591 1006 530 1065 q 651 869 651 947 l 651 197 q 591 59 651 117 q 453 0 531 0 m 454 197 l 454 869 l 244 869 l 244 197 l 454 197 z "},"1":{"ha":348,"x_min":47,"x_max":300,"o":"m 252 0 l 153 0 q 104 49 104 0 l 104 823 l 96 823 q 47 871 47 823 l 47 986 q 79 1032 47 1019 l 161 1062 q 178 1065 170 1065 l 252 1065 q 300 1017 300 1065 l 300 49 q 252 0 300 0 z "},"2":{"ha":690,"x_min":47,"x_max":643,"o":"m 444 434 l 244 434 l 244 197 l 595 197 q 643 148 643 197 l 643 49 q 595 0 643 0 l 96 0 q 47 49 47 0 l 47 435 q 107 572 47 513 q 245 631 167 631 l 446 631 l 446 869 l 246 869 l 246 838 q 197 789 246 789 l 96 789 q 47 838 47 789 l 47 869 q 107 1006 47 947 q 245 1065 167 1065 l 446 1065 q 583 1006 524 1065 q 643 869 643 947 l 643 632 q 583 493 643 553 q 444 434 522 434 z "},"3":{"ha":691,"x_min":47,"x_max":644,"o":"m 446 0 l 244 0 q 106 58 165 0 q 47 195 47 117 l 47 234 q 96 283 47 283 l 196 283 q 244 234 244 283 l 244 197 l 446 197 l 446 434 l 279 434 q 231 483 231 434 l 231 583 q 279 631 231 631 l 446 631 l 446 869 l 244 869 l 244 837 q 196 789 244 789 l 96 789 q 47 837 47 789 l 47 869 q 107 1006 47 947 q 245 1065 167 1065 l 446 1065 q 584 1006 524 1065 q 644 869 644 947 l 644 692 q 602 574 644 625 l 568 532 l 602 492 q 644 373 644 439 l 644 196 q 584 59 644 117 q 446 0 524 0 z "},"4":{"ha":754,"x_min":47,"x_max":707,"o":"m 322 434 l 455 434 l 455 667 l 322 434 m 159 250 l 77 323 q 66 383 47 348 l 441 1041 q 484 1065 456 1065 l 603 1065 q 652 1017 652 1065 l 652 434 l 658 434 q 707 386 707 434 l 707 286 q 658 237 707 237 l 652 237 l 652 49 q 603 0 652 0 l 503 0 q 469 14 483 0 q 454 49 454 28 l 455 237 l 191 237 q 159 250 173 237 z "},"5":{"ha":684,"x_min":47,"x_max":636,"o":"m 439 1 l 244 1 q 107 60 166 1 q 47 197 47 118 l 47 234 q 96 283 47 283 l 195 283 q 244 234 244 283 l 244 197 l 439 197 l 439 507 l 244 507 q 107 566 166 507 q 47 703 47 624 l 47 1017 q 96 1065 47 1065 l 579 1065 q 628 1017 628 1065 l 628 917 q 579 869 628 869 l 245 869 l 245 704 l 439 704 q 576 646 517 704 q 636 509 636 587 l 636 197 q 576 60 636 119 q 439 1 516 1 z "},"6":{"ha":689,"x_min":47,"x_max":642,"o":"m 445 0 l 245 0 q 107 59 166 0 q 47 196 47 117 l 47 869 q 106 1006 47 947 q 244 1065 165 1065 l 442 1065 q 579 1006 519 1065 q 640 869 640 947 l 640 837 q 591 789 640 789 l 491 789 q 442 837 442 789 l 442 869 l 244 869 l 244 631 l 445 631 q 582 573 523 631 q 642 436 642 514 l 642 196 q 582 59 642 117 q 445 0 522 0 m 441 197 l 441 434 l 244 434 l 244 197 l 441 197 z "},"7":{"ha":702,"x_min":47,"x_max":654,"o":"m 650 929 l 389 35 q 342 0 378 0 l 239 0 q 199 20 214 0 q 192 63 184 39 l 438 869 l 244 869 l 244 837 q 195 789 244 789 l 96 789 q 47 837 47 789 l 47 1017 q 96 1065 47 1065 l 566 1065 q 610 1038 596 1065 l 646 964 q 650 929 654 947 z "},"8":{"ha":691,"x_min":47,"x_max":644,"o":"m 446 631 l 446 869 l 244 869 l 244 631 l 446 631 m 446 197 l 446 434 l 244 434 l 244 197 l 446 197 m 446 0 l 245 0 q 107 59 166 0 q 47 196 47 117 l 47 373 q 89 492 47 439 l 123 532 l 89 574 q 47 692 47 625 l 47 869 q 107 1006 47 947 q 245 1065 166 1065 l 446 1065 q 584 1006 524 1065 q 644 869 644 947 l 644 693 q 601 574 644 626 l 567 532 l 601 492 q 644 373 644 439 l 644 196 q 584 59 644 117 q 446 0 524 0 z "},"9":{"ha":692,"x_min":47,"x_max":644,"o":"m 447 0 l 250 0 q 112 59 172 0 q 53 196 53 117 l 53 234 q 102 283 53 283 l 196 283 q 245 234 245 283 l 245 197 l 448 197 l 448 434 l 243 434 q 119 481 172 434 l 111 489 q 47 629 47 545 l 47 869 q 107 1006 47 947 q 245 1065 166 1065 l 446 1065 q 584 1006 524 1065 q 644 868 644 946 l 644 196 q 585 59 644 117 q 447 0 525 0 m 448 631 l 448 869 l 245 869 l 245 631 l 448 631 z "}," ":{"ha":339,"x_min":0,"x_max":0,"o":""}," ":{"ha":339,"x_min":0,"x_max":0,"o":""},"!":{"ha":95,"x_min":0,"x_max":0,"o":""},"\"":{"ha":95,"x_min":0,"x_max":0,"o":""},"#":{"ha":95,"x_min":0,"x_max":0,"o":""},"$":{"ha":688,"x_min":47,"x_max":640,"o":"m 245 1065 l 442 1065 q 580 1006 520 1065 q 640 869 640 947 l 640 831 q 591 783 640 783 l 488 783 q 439 831 439 783 l 439 869 l 244 869 l 244 726 l 563 494 q 640 343 640 438 l 640 197 q 580 59 640 118 q 442 0 520 0 l 244 0 q 107 58 166 0 q 47 196 47 117 l 47 234 q 96 283 47 283 l 198 283 q 247 234 247 283 l 247 197 l 443 197 l 443 345 l 126 570 q 47 723 47 627 l 47 869 q 107 1006 47 947 q 245 1065 166 1065 z "},"%":{"ha":95,"x_min":0,"x_max":0,"o":""},"&":{"ha":95,"x_min":0,"x_max":0,"o":""},"'":{"ha":95,"x_min":0,"x_max":0,"o":""},"(":{"ha":755,"x_min":0,"x_max":0,"o":""},")":{"ha":746,"x_min":0,"x_max":0,"o":""},"*":{"ha":95,"x_min":0,"x_max":0,"o":""},"+":{"ha":95,"x_min":0,"x_max":0,"o":""},",":{"ha":95,"x_min":0,"x_max":0,"o":""},"-":{"ha":95,"x_min":0,"x_max":0,"o":""},"­":{"ha":95,"x_min":0,"x_max":0,"o":""},".":{"ha":292,"x_min":47,"x_max":244,"o":"m 195 0 l 96 0 q 47 49 47 0 l 47 148 q 96 197 47 197 l 195 197 q 244 148 244 197 l 244 49 q 195 0 244 0 z "},"/":{"ha":95,"x_min":0,"x_max":0,"o":""},":":{"ha":95,"x_min":0,"x_max":0,"o":""},";":{"ha":95,"x_min":0,"x_max":0,"o":""},";":{"ha":95,"x_min":0,"x_max":0,"o":""},"<":{"ha":95,"x_min":0,"x_max":0,"o":""},"=":{"ha":95,"x_min":0,"x_max":0,"o":""},">":{"ha":95,"x_min":0,"x_max":0,"o":""},"?":{"ha":95,"x_min":0,"x_max":0,"o":""},"@":{"ha":95,"x_min":0,"x_max":0,"o":""},"A":{"ha":783,"x_min":47,"x_max":736,"o":"m 534 39 l 495 237 l 289 237 l 250 39 q 201 0 241 0 l 100 0 q 62 18 77 0 q 52 58 47 35 l 246 1026 q 294 1065 254 1065 l 490 1065 q 538 1026 530 1065 l 732 58 q 722 18 736 35 q 684 0 707 0 l 583 0 q 534 39 542 0 m 456 434 l 392 753 l 328 434 l 456 434 z "},"B":{"ha":691,"x_min":47,"x_max":644,"o":"m 244 631 l 446 631 l 446 869 l 244 869 l 244 631 m 244 197 l 446 197 l 446 434 l 244 434 l 244 197 m 446 0 l 96 0 q 47 49 47 0 l 47 1017 q 96 1065 47 1065 l 446 1065 q 584 1006 524 1065 q 644 869 644 947 l 644 693 q 601 574 644 626 l 568 534 l 602 491 q 644 374 644 439 l 644 196 q 584 59 644 117 q 446 0 524 0 z "},"C":{"ha":700,"x_min":47,"x_max":652,"o":"m 576 46 q 454 0 524 0 l 244 0 q 107 59 166 0 q 47 196 47 117 l 47 869 q 107 1006 47 947 q 245 1065 167 1065 l 453 1065 q 592 1006 531 1065 q 652 868 652 946 l 652 837 q 604 789 652 789 l 504 789 q 456 837 456 789 l 456 869 l 244 869 l 244 197 l 456 197 l 456 234 q 504 283 456 283 l 604 283 q 652 234 652 283 l 652 197 q 576 46 652 111 z "},"D":{"ha":707,"x_min":47,"x_max":659,"o":"m 659 868 l 659 197 q 599 59 659 118 q 461 0 538 0 l 96 0 q 47 49 47 0 l 47 1017 q 96 1065 47 1065 l 460 1065 q 599 1006 538 1065 q 659 868 659 946 m 463 197 l 463 869 l 245 869 l 245 197 l 463 197 z "},"E":{"ha":608,"x_min":47,"x_max":561,"o":"m 512 0 l 235 0 q 102 55 157 0 q 47 187 47 110 l 47 1017 q 96 1065 47 1065 l 508 1065 q 557 1017 557 1065 l 557 917 q 508 869 557 869 l 244 869 l 244 631 l 465 631 q 513 583 513 631 l 513 483 q 465 434 513 434 l 244 434 l 244 197 l 512 197 q 561 148 561 197 l 561 49 q 512 0 561 0 z "},"F":{"ha":604,"x_min":47,"x_max":557,"o":"m 508 869 l 245 869 l 245 631 l 465 631 q 513 583 513 631 l 513 483 q 465 434 513 434 l 245 434 l 245 49 q 196 0 245 0 l 96 0 q 47 49 47 0 l 47 878 q 102 1010 47 955 q 235 1065 157 1065 l 508 1065 q 557 1017 557 1065 l 557 917 q 508 869 557 869 z "},"G":{"ha":702,"x_min":47,"x_max":654,"o":"m 456 0 l 244 0 q 107 58 166 0 q 47 195 47 117 l 47 869 q 107 1006 47 947 q 245 1065 168 1065 l 456 1065 q 594 1006 534 1065 q 654 869 654 947 l 654 835 q 606 787 654 787 l 507 787 q 458 835 458 787 l 458 869 l 245 869 l 245 197 l 458 197 l 458 434 l 372 434 q 323 483 323 434 l 323 583 q 372 631 323 631 l 606 631 q 654 583 654 631 l 654 197 q 594 59 654 117 q 456 0 534 0 z "},"H":{"ha":711,"x_min":47,"x_max":664,"o":"m 616 0 l 516 0 q 467 49 467 0 l 467 434 l 244 434 l 244 49 q 196 0 244 0 l 96 0 q 47 49 47 0 l 47 1017 q 96 1065 47 1065 l 196 1065 q 244 1017 244 1065 l 244 631 l 467 631 l 467 1017 q 516 1065 467 1065 l 616 1065 q 664 1017 664 1065 l 664 49 q 616 0 664 0 z "},"I":{"ha":292,"x_min":47,"x_max":245,"o":"m 196 0 l 96 0 q 47 49 47 0 l 47 1017 q 96 1065 47 1065 l 196 1065 q 245 1017 245 1065 l 245 49 q 196 0 245 0 z "},"J":{"ha":667,"x_min":47,"x_max":620,"o":"m 422 0 l 245 0 q 107 59 166 0 q 47 196 47 117 l 47 234 q 96 283 47 283 l 196 283 q 244 234 244 283 l 244 197 l 423 197 l 423 1017 q 471 1065 423 1065 l 572 1065 q 620 1017 620 1065 l 620 197 q 560 59 620 117 q 422 0 500 0 z "},"K":{"ha":699,"x_min":47,"x_max":652,"o":"m 640 995 l 412 532 l 640 71 q 638 23 652 47 q 597 0 624 0 l 486 0 q 442 28 454 0 l 244 434 l 244 49 q 195 0 244 0 l 96 0 q 47 49 47 0 l 47 1017 q 96 1065 47 1065 l 195 1065 q 244 1017 244 1065 l 244 631 l 442 1038 q 486 1065 456 1065 l 597 1065 q 638 1042 623 1065 q 640 995 652 1018 z "},"L":{"ha":583,"x_min":47,"x_max":535,"o":"m 487 0 l 235 0 q 103 55 158 0 q 47 187 47 110 l 47 1017 q 96 1065 47 1065 l 196 1065 q 245 1017 245 1065 l 245 197 l 487 197 q 535 148 535 197 l 535 49 q 487 0 535 0 z "},"M":{"ha":831,"x_min":47,"x_max":784,"o":"m 735 0 l 635 0 q 587 49 587 0 l 587 600 l 459 328 q 415 300 446 300 q 372 328 384 300 l 244 600 l 244 49 q 195 0 244 0 l 96 0 q 47 49 47 0 l 47 1017 q 96 1065 47 1065 l 213 1065 q 257 1037 243 1065 l 415 699 l 574 1037 q 618 1065 587 1065 l 735 1065 q 784 1017 784 1065 l 784 49 q 735 0 784 0 z "},"N":{"ha":717,"x_min":47,"x_max":669,"o":"m 446 31 l 243 558 l 243 49 q 195 0 243 0 l 96 0 q 47 49 47 0 l 47 1017 q 96 1065 47 1065 l 225 1065 q 271 1034 258 1065 l 474 507 l 474 1017 q 523 1065 474 1065 l 621 1065 q 669 1017 669 1065 l 669 50 q 621 1 669 1 l 492 1 q 446 31 458 0 z "},"O":{"ha":713,"x_min":47,"x_max":666,"o":"m 469 0 l 244 0 q 106 58 165 0 q 47 195 47 117 l 47 869 q 107 1006 47 947 q 244 1065 166 1065 l 468 1065 q 606 1006 546 1065 q 666 869 666 947 l 666 196 q 606 59 666 117 q 469 0 546 0 m 469 197 l 469 869 l 244 869 l 244 197 l 469 197 z "},"P":{"ha":688,"x_min":47,"x_max":641,"o":"m 442 361 l 244 361 l 244 49 q 196 0 244 0 l 96 0 q 47 49 47 0 l 47 1017 q 96 1065 47 1065 l 443 1065 q 581 1006 520 1065 q 641 868 641 947 l 641 559 q 581 420 641 479 q 442 361 520 361 m 444 558 l 444 869 l 244 869 l 244 558 l 444 558 z "},"Q":{"ha":713,"x_min":47,"x_max":665,"o":"m 469 0 l 496 -33 q 500 -71 509 -50 q 469 -90 492 -90 l 344 -90 q 306 -73 321 -91 l 246 0 q 107 58 167 0 q 47 195 47 116 l 47 869 q 107 1006 47 947 q 244 1065 166 1065 l 468 1065 q 606 1006 546 1065 q 665 869 665 947 l 665 196 q 606 59 665 117 q 469 0 546 0 m 469 197 l 469 869 l 244 869 l 244 197 l 469 197 z "},"R":{"ha":713,"x_min":47,"x_max":665,"o":"m 610 0 l 504 0 q 459 31 471 0 l 303 434 l 245 434 l 245 49 q 196 0 245 0 l 96 0 q 47 49 47 0 l 47 1017 q 96 1065 47 1065 l 443 1065 q 581 1006 521 1065 q 642 868 642 947 l 642 632 q 603 519 642 570 q 508 447 564 468 l 656 66 q 651 21 665 41 q 610 0 636 0 m 444 631 l 444 869 l 245 869 l 245 631 l 444 631 z "},"S":{"ha":687,"x_min":47,"x_max":640,"o":"m 443 0 l 245 0 q 107 59 166 0 q 47 197 47 117 l 47 234 q 96 283 47 283 l 195 283 q 244 234 244 283 l 244 197 l 443 197 l 443 434 l 245 434 q 107 493 166 434 q 47 631 47 552 l 47 869 q 107 1006 47 947 q 245 1065 166 1065 l 443 1065 q 580 1006 521 1065 q 640 869 640 947 l 640 837 q 591 789 640 789 l 492 789 q 443 837 443 789 l 443 869 l 244 869 l 244 631 l 443 631 q 580 572 521 631 q 640 435 640 513 l 640 196 q 580 58 640 117 q 443 0 521 0 z "},"T":{"ha":683,"x_min":47,"x_max":635,"o":"m 587 869 l 440 869 l 440 49 q 391 0 440 0 l 292 0 q 243 49 243 0 l 243 869 l 96 869 q 47 917 47 869 l 47 1017 q 96 1065 47 1065 l 587 1065 q 635 1017 635 1065 l 635 917 q 587 869 635 869 z "},"U":{"ha":709,"x_min":47,"x_max":661,"o":"m 462 0 l 245 0 q 107 59 166 0 q 47 196 47 117 l 47 1017 q 96 1065 47 1065 l 195 1065 q 244 1017 244 1065 l 244 197 l 465 197 l 465 1017 q 513 1065 465 1065 l 612 1065 q 661 1017 661 1065 l 661 197 q 601 59 661 118 q 462 0 540 0 z "},"V":{"ha":756,"x_min":47,"x_max":709,"o":"m 378 451 q 445 749 420 638 q 507 1027 470 861 q 555 1065 515 1065 l 656 1065 q 694 1047 680 1065 q 704 1006 709 1028 l 488 37 q 440 0 479 0 l 316 0 q 269 37 277 0 l 53 1006 q 62 1047 47 1028 q 100 1065 77 1065 l 202 1065 q 250 1027 241 1065 q 311 749 287 861 q 378 451 336 638 z "},"W":{"ha":1026,"x_min":47,"x_max":979,"o":"m 976 1008 l 813 40 q 766 0 806 0 l 646 0 q 598 39 605 0 l 513 460 l 429 39 q 381 0 420 0 l 261 0 q 213 40 220 0 l 52 1008 q 62 1048 47 1030 q 100 1065 77 1065 l 201 1065 q 250 1024 243 1065 l 324 521 l 424 1026 q 472 1065 431 1065 l 555 1065 q 603 1026 595 1065 l 702 520 l 777 1024 q 825 1065 782 1065 l 928 1065 q 965 1048 949 1065 q 976 1008 979 1031 z "},"X":{"ha":739,"x_min":47,"x_max":691,"o":"m 637 0 l 529 0 q 484 30 497 0 l 370 296 l 256 30 q 212 0 244 0 l 103 0 q 63 22 76 0 q 58 68 47 44 l 263 548 l 71 998 q 75 1044 60 1021 q 115 1065 89 1065 l 224 1065 q 269 1036 255 1065 l 370 798 l 472 1036 q 517 1065 484 1065 l 625 1065 q 666 1044 651 1065 q 670 998 680 1021 l 477 548 l 682 68 q 678 22 691 43 q 637 0 663 0 z "},"Y":{"ha":743,"x_min":47,"x_max":696,"o":"m 469 393 l 469 49 q 420 0 469 0 l 319 0 q 270 49 270 0 l 270 394 l 56 1000 q 62 1045 47 1024 q 102 1065 78 1065 l 201 1065 q 248 1032 236 1065 l 370 669 l 491 1032 q 537 1065 502 1065 l 642 1065 q 682 1044 667 1065 q 688 1000 696 1024 l 469 393 z "},"Z":{"ha":661,"x_min":47,"x_max":614,"o":"m 565 0 l 96 0 q 47 49 47 0 l 47 79 q 51 98 47 87 l 363 869 l 123 869 q 75 918 75 869 l 75 1017 q 123 1065 75 1065 l 564 1065 q 612 1017 612 1065 l 612 967 q 608 949 612 957 l 304 197 l 565 197 q 614 148 614 197 l 614 49 q 565 0 614 0 z "},"[":{"ha":95,"x_min":0,"x_max":0,"o":""},"\\":{"ha":95,"x_min":0,"x_max":0,"o":""},"]":{"ha":95,"x_min":0,"x_max":0,"o":""},"^":{"ha":95,"x_min":0,"x_max":0,"o":""},"_":{"ha":95,"x_min":0,"x_max":0,"o":""},"`":{"ha":95,"x_min":0,"x_max":0,"o":""},"a":{"ha":783,"x_min":47,"x_max":736,"o":"m 534 39 l 495 237 l 289 237 l 250 39 q 201 0 241 0 l 100 0 q 62 18 77 0 q 52 58 47 35 l 246 1026 q 294 1065 254 1065 l 490 1065 q 538 1026 530 1065 l 732 58 q 722 18 736 35 q 684 0 707 0 l 583 0 q 534 39 542 0 m 456 434 l 392 753 l 328 434 l 456 434 z "},"b":{"ha":691,"x_min":47,"x_max":644,"o":"m 244 631 l 446 631 l 446 869 l 244 869 l 244 631 m 244 197 l 446 197 l 446 434 l 244 434 l 244 197 m 446 0 l 96 0 q 47 49 47 0 l 47 1017 q 96 1065 47 1065 l 446 1065 q 584 1006 524 1065 q 644 869 644 947 l 644 693 q 601 574 644 626 l 568 534 l 602 491 q 644 374 644 439 l 644 196 q 584 59 644 117 q 446 0 524 0 z "},"c":{"ha":700,"x_min":47,"x_max":652,"o":"m 576 46 q 454 0 524 0 l 244 0 q 107 59 166 0 q 47 196 47 117 l 47 869 q 107 1006 47 947 q 245 1065 167 1065 l 453 1065 q 592 1006 531 1065 q 652 868 652 946 l 652 837 q 604 789 652 789 l 504 789 q 456 837 456 789 l 456 869 l 244 869 l 244 197 l 456 197 l 456 234 q 504 283 456 283 l 604 283 q 652 234 652 283 l 652 197 q 576 46 652 111 z "},"d":{"ha":707,"x_min":47,"x_max":659,"o":"m 659 868 l 659 197 q 599 59 659 118 q 461 0 538 0 l 96 0 q 47 49 47 0 l 47 1017 q 96 1065 47 1065 l 460 1065 q 599 1006 538 1065 q 659 868 659 946 m 463 197 l 463 869 l 245 869 l 245 197 l 463 197 z "},"e":{"ha":608,"x_min":47,"x_max":561,"o":"m 512 0 l 235 0 q 102 55 157 0 q 47 187 47 110 l 47 1017 q 96 1065 47 1065 l 508 1065 q 557 1017 557 1065 l 557 917 q 508 869 557 869 l 244 869 l 244 631 l 465 631 q 513 583 513 631 l 513 483 q 465 434 513 434 l 244 434 l 244 197 l 512 197 q 561 148 561 197 l 561 49 q 512 0 561 0 z "},"f":{"ha":604,"x_min":47,"x_max":557,"o":"m 508 869 l 245 869 l 245 631 l 465 631 q 513 583 513 631 l 513 483 q 465 434 513 434 l 245 434 l 245 49 q 196 0 245 0 l 96 0 q 47 49 47 0 l 47 878 q 102 1010 47 955 q 235 1065 157 1065 l 508 1065 q 557 1017 557 1065 l 557 917 q 508 869 557 869 z "},"g":{"ha":702,"x_min":47,"x_max":654,"o":"m 456 0 l 244 0 q 107 58 166 0 q 47 195 47 117 l 47 869 q 107 1006 47 947 q 245 1065 168 1065 l 456 1065 q 594 1006 534 1065 q 654 869 654 947 l 654 835 q 606 787 654 787 l 507 787 q 458 835 458 787 l 458 869 l 245 869 l 245 197 l 458 197 l 458 434 l 372 434 q 323 483 323 434 l 323 583 q 372 631 323 631 l 606 631 q 654 583 654 631 l 654 197 q 594 59 654 117 q 456 0 534 0 z "},"h":{"ha":711,"x_min":47,"x_max":664,"o":"m 616 0 l 516 0 q 467 49 467 0 l 467 434 l 244 434 l 244 49 q 196 0 244 0 l 96 0 q 47 49 47 0 l 47 1017 q 96 1065 47 1065 l 196 1065 q 244 1017 244 1065 l 244 631 l 467 631 l 467 1017 q 516 1065 467 1065 l 616 1065 q 664 1017 664 1065 l 664 49 q 616 0 664 0 z "},"i":{"ha":292,"x_min":47,"x_max":245,"o":"m 196 0 l 96 0 q 47 49 47 0 l 47 1017 q 96 1065 47 1065 l 196 1065 q 245 1017 245 1065 l 245 49 q 196 0 245 0 z "},"j":{"ha":667,"x_min":47,"x_max":620,"o":"m 422 0 l 245 0 q 107 59 166 0 q 47 196 47 117 l 47 234 q 96 283 47 283 l 196 283 q 244 234 244 283 l 244 197 l 423 197 l 423 1017 q 471 1065 423 1065 l 572 1065 q 620 1017 620 1065 l 620 197 q 560 59 620 117 q 422 0 500 0 z "},"k":{"ha":699,"x_min":47,"x_max":652,"o":"m 640 995 l 412 532 l 640 71 q 638 23 652 47 q 597 0 624 0 l 486 0 q 442 28 454 0 l 244 434 l 244 49 q 195 0 244 0 l 96 0 q 47 49 47 0 l 47 1017 q 96 1065 47 1065 l 195 1065 q 244 1017 244 1065 l 244 631 l 442 1038 q 486 1065 456 1065 l 597 1065 q 638 1042 623 1065 q 640 995 652 1018 z "},"l":{"ha":583,"x_min":47,"x_max":535,"o":"m 487 0 l 235 0 q 103 55 158 0 q 47 187 47 110 l 47 1017 q 96 1065 47 1065 l 196 1065 q 245 1017 245 1065 l 245 197 l 487 197 q 535 148 535 197 l 535 49 q 487 0 535 0 z "},"m":{"ha":831,"x_min":47,"x_max":784,"o":"m 735 0 l 635 0 q 587 49 587 0 l 587 600 l 459 328 q 415 300 446 300 q 372 328 384 300 l 244 600 l 244 49 q 195 0 244 0 l 96 0 q 47 49 47 0 l 47 1017 q 96 1065 47 1065 l 213 1065 q 257 1037 243 1065 l 415 699 l 574 1037 q 618 1065 587 1065 l 735 1065 q 784 1017 784 1065 l 784 49 q 735 0 784 0 z "},"n":{"ha":717,"x_min":47,"x_max":669,"o":"m 446 31 l 243 558 l 243 49 q 195 0 243 0 l 96 0 q 47 49 47 0 l 47 1017 q 96 1065 47 1065 l 225 1065 q 271 1034 258 1065 l 474 507 l 474 1017 q 523 1065 474 1065 l 621 1065 q 669 1017 669 1065 l 669 50 q 621 1 669 1 l 492 1 q 446 31 458 0 z "},"o":{"ha":713,"x_min":47,"x_max":666,"o":"m 469 0 l 244 0 q 106 58 165 0 q 47 195 47 117 l 47 869 q 107 1006 47 947 q 244 1065 166 1065 l 468 1065 q 606 1006 546 1065 q 666 869 666 947 l 666 196 q 606 59 666 117 q 469 0 546 0 m 469 197 l 469 869 l 244 869 l 244 197 l 469 197 z "},"p":{"ha":688,"x_min":47,"x_max":641,"o":"m 442 361 l 244 361 l 244 49 q 196 0 244 0 l 96 0 q 47 49 47 0 l 47 1017 q 96 1065 47 1065 l 443 1065 q 581 1006 520 1065 q 641 868 641 947 l 641 559 q 581 420 641 479 q 442 361 520 361 m 444 558 l 444 869 l 244 869 l 244 558 l 444 558 z "},"q":{"ha":713,"x_min":47,"x_max":665,"o":"m 469 0 l 496 -33 q 500 -71 509 -50 q 469 -90 492 -90 l 344 -90 q 306 -73 321 -91 l 246 0 q 107 58 167 0 q 47 195 47 116 l 47 869 q 107 1006 47 947 q 244 1065 166 1065 l 468 1065 q 606 1006 546 1065 q 665 869 665 947 l 665 196 q 606 59 665 117 q 469 0 546 0 m 469 197 l 469 869 l 244 869 l 244 197 l 469 197 z "},"r":{"ha":713,"x_min":47,"x_max":665,"o":"m 610 0 l 504 0 q 459 31 471 0 l 303 434 l 245 434 l 245 49 q 196 0 245 0 l 96 0 q 47 49 47 0 l 47 1017 q 96 1065 47 1065 l 443 1065 q 581 1006 521 1065 q 642 868 642 947 l 642 632 q 603 519 642 570 q 508 447 564 468 l 656 66 q 651 21 665 41 q 610 0 636 0 m 444 631 l 444 869 l 245 869 l 245 631 l 444 631 z "},"s":{"ha":687,"x_min":47,"x_max":640,"o":"m 443 0 l 245 0 q 107 59 166 0 q 47 197 47 117 l 47 234 q 96 283 47 283 l 195 283 q 244 234 244 283 l 244 197 l 443 197 l 443 434 l 245 434 q 107 493 166 434 q 47 631 47 552 l 47 869 q 107 1006 47 947 q 245 1065 166 1065 l 443 1065 q 580 1006 521 1065 q 640 869 640 947 l 640 837 q 591 789 640 789 l 492 789 q 443 837 443 789 l 443 869 l 244 869 l 244 631 l 443 631 q 580 572 521 631 q 640 435 640 513 l 640 196 q 580 58 640 117 q 443 0 521 0 z "},"t":{"ha":683,"x_min":47,"x_max":635,"o":"m 587 869 l 440 869 l 440 49 q 391 0 440 0 l 292 0 q 243 49 243 0 l 243 869 l 96 869 q 47 917 47 869 l 47 1017 q 96 1065 47 1065 l 587 1065 q 635 1017 635 1065 l 635 917 q 587 869 635 869 z "},"u":{"ha":709,"x_min":47,"x_max":661,"o":"m 462 0 l 245 0 q 107 59 166 0 q 47 196 47 117 l 47 1017 q 96 1065 47 1065 l 195 1065 q 244 1017 244 1065 l 244 197 l 465 197 l 465 1017 q 513 1065 465 1065 l 612 1065 q 661 1017 661 1065 l 661 197 q 601 59 661 118 q 462 0 540 0 z "},"v":{"ha":756,"x_min":47,"x_max":709,"o":"m 378 451 q 445 749 420 638 q 507 1027 470 861 q 555 1065 515 1065 l 656 1065 q 694 1047 680 1065 q 704 1006 709 1028 l 488 37 q 440 0 479 0 l 316 0 q 269 37 277 0 l 53 1006 q 62 1047 47 1028 q 100 1065 77 1065 l 202 1065 q 250 1027 241 1065 q 311 749 287 861 q 378 451 336 638 z "},"w":{"ha":1026,"x_min":47,"x_max":979,"o":"m 976 1008 l 813 40 q 766 0 806 0 l 646 0 q 598 39 605 0 l 513 460 l 429 39 q 381 0 420 0 l 261 0 q 213 40 220 0 l 52 1008 q 62 1048 47 1030 q 100 1065 77 1065 l 201 1065 q 250 1024 243 1065 l 324 521 l 424 1026 q 472 1065 431 1065 l 555 1065 q 603 1026 595 1065 l 702 520 l 777 1024 q 825 1065 782 1065 l 928 1065 q 965 1048 949 1065 q 976 1008 979 1031 z "},"x":{"ha":739,"x_min":47,"x_max":691,"o":"m 637 0 l 529 0 q 484 30 497 0 l 370 296 l 256 30 q 212 0 244 0 l 103 0 q 63 22 76 0 q 58 68 47 44 l 263 548 l 71 998 q 75 1044 60 1021 q 115 1065 89 1065 l 224 1065 q 269 1036 255 1065 l 370 798 l 472 1036 q 517 1065 484 1065 l 625 1065 q 666 1044 651 1065 q 670 998 680 1021 l 477 548 l 682 68 q 678 22 691 43 q 637 0 663 0 z "},"y":{"ha":743,"x_min":47,"x_max":696,"o":"m 469 393 l 469 49 q 420 0 469 0 l 319 0 q 270 49 270 0 l 270 394 l 56 1000 q 62 1045 47 1024 q 102 1065 78 1065 l 201 1065 q 248 1032 236 1065 l 370 669 l 491 1032 q 537 1065 502 1065 l 642 1065 q 682 1044 667 1065 q 688 1000 696 1024 l 469 393 z "},"z":{"ha":661,"x_min":47,"x_max":614,"o":"m 565 0 l 96 0 q 47 49 47 0 l 47 79 q 51 98 47 87 l 363 869 l 123 869 q 75 918 75 869 l 75 1017 q 123 1065 75 1065 l 564 1065 q 612 1017 612 1065 l 612 967 q 608 949 612 957 l 304 197 l 565 197 q 614 148 614 197 l 614 49 q 565 0 614 0 z "},"{":{"ha":692,"x_min":47,"x_max":644,"o":"m 245 281 l 245 197 l 596 197 q 644 148 644 197 l 644 49 q 596 0 644 0 l 96 0 q 47 49 47 0 l 47 285 q 104 418 47 363 l 448 757 l 448 869 l 247 869 l 247 837 q 198 789 247 789 l 96 789 q 47 837 47 789 l 47 869 q 107 1006 47 947 q 245 1065 168 1065 l 447 1065 q 585 1006 525 1065 q 644 869 644 947 l 644 753 q 589 619 644 675 l 245 281 z "},"|":{"ha":684,"x_min":0,"x_max":0,"o":""},"}":{"ha":684,"x_min":47,"x_max":636,"o":"m 439 0 l 244 0 q 106 58 165 0 q 47 195 47 117 l 47 234 q 96 283 47 283 l 196 283 q 244 234 244 283 l 244 197 l 439 197 l 439 532 l 96 532 q 47 581 47 532 l 47 1017 q 96 1065 47 1065 l 580 1065 q 628 1017 628 1065 l 628 917 q 580 869 628 869 l 244 869 l 244 730 l 439 730 q 577 671 517 730 q 636 534 636 612 l 636 196 q 576 59 636 117 q 439 0 517 0 z "},"~":{"ha":746,"x_min":0,"x_max":0,"o":""}}}
